<?xml version="1.0" encoding="utf-8"?>
<!-- Generator: Adobe Illustrator 26.2.1, SVG Export Plug-In . SVG Version: 6.00 Build 0)  -->
<svg version="1.1" id="Layer_1" xmlns="http://www.w3.org/2000/svg" xmlns:xlink="http://www.w3.org/1999/xlink" x="0px"
  y="0px" viewBox="0 0 850.39 850.39" style="enable-background:new 0 0 850.39 850.39;" xml:space="preserve">
  <style type="text/css">
    .st0 {
      fill: #EE4D2D;
    }

    .st1 {
      fill: #FFFFFF;
      stroke: #CCCCCC;
      stroke-miterlimit: 10;
    }

    .st2 {
      fill: #FFFFFF;
      stroke: #CCCCCC;
      stroke-width: 0.6862;
      stroke-miterlimit: 10;
    }

    .st3 {
      fill-rule: evenodd;
      clip-rule: evenodd;
      fill: #EE4D2D;
    }

    .st4 {
      fill-rule: evenodd;
      clip-rule: evenodd;
      fill: #FFFFFF;
    }

    .st5 {
      fill: #FFFFFF;
    }
  </style>
  <g>
    <g>
      <g>
        <path class="st3" d="M230.81,697.59V541.1c0-3.24,2.63-5.87,5.87-5.87h52.84c29.75,0.39,53.95,24.61,53.95,54
				c0,29.39-24.21,53.62-53.97,54l-38.23,0v54.36c0,3.24-2.63,5.87-5.87,5.87h-8.72C233.44,703.46,230.81,700.83,230.81,697.59z
				 M251.28,621.96l38.01,0c8.9,0,17.27-3.45,23.57-9.71c6.29-6.26,9.76-14.58,9.76-23.42c0-18.27-14.91-33.13-33.23-33.13h-38.1
				V621.96z" />
        <path class="st3" d="M478.18,750.36l40-68.73l-47.91-78.41c-1.43-2.35,0.26-5.36,3.01-5.36h19.4l38.53,62.48l37.2-62.48h17.89
				c2.73,0,4.42,2.97,3.03,5.32l-90.15,152.48h-17.96C478.51,755.66,476.82,752.71,478.18,750.36z" />
        <path class="st3" d="M433.19,696.78v-9.04l-2.97,2.48c-9.63,8.02-21.94,12.43-34.66,12.43c-29.35,0-53.23-23.51-53.23-52.4
				c0-28.45,23.88-51.59,53.23-51.59c12.72,0,25.03,4.42,34.66,12.43l2.97,2.48v-9.04c0-3.24,2.63-5.87,5.87-5.87h12.18v103.99
				h-12.18C435.82,702.66,433.19,700.03,433.19,696.78z M395.42,618.18c-18.45,0-33.46,14.42-33.46,32.14
				c0,17.85,15.32,32.93,33.46,32.93c18.14,0,33.46-15.08,33.46-32.93C428.88,632.6,413.87,618.18,395.42,618.18z" />
      </g>
      <path class="st0" d="M555.63,228.25h-31.07H282.77c-8.31,0-15.05-6.74-15.05-15.05c0-3.78,3.06-6.84,6.84-6.84h244.53
			c3.78,0,6.84-3.06,6.84-6.84v-24.65c0-8.83-7.57-15.77-16.37-14.99l-247.79,21.88c-17.68,1.53-31.25,16.33-31.25,34.08v45.25
			v150.5v42.42c0,18.89,15.31,34.2,34.2,34.2h290.91c18.89,0,34.21-15.31,34.21-34.2V262.46
			C589.83,243.57,574.52,228.25,555.63,228.25" />
    </g>
    <path class="st5" d="M471.33,407.19c-2.15,17.64-12.91,31.77-29.58,38.84c-9.28,3.94-21.71,6.06-31.57,5.39
		c-15.33-0.58-29.74-4.29-43.02-11.06c-4.83-2.47-11.92-7.33-17.26-11.79c-1.22-1.01-1.84-1.92-0.67-3.57
		c1.25-1.87,6.18-9.01,6.96-10.19c1.05-1.6,2.77-1.68,4.36-0.44c0.22,0.17,1.82,1.41,2.15,1.65c12.78,9.94,29.27,17.41,47.58,18.11
		c23.1-0.31,39.86-10.6,42.85-26.53c3.3-17.56-10.71-32.62-37.69-41.02c-8.58-2.67-30.14-11.25-34.13-13.57
		c-18.8-10.95-27.55-25.32-26.3-43c1.91-24.51,24.78-42.87,53.82-42.99c13.78-0.03,26.7,3.01,38.21,7.83
		c4.24,1.77,12.13,6,14.95,8.09c1.97,1.43,1.81,3.04,1.04,4.28c-1.15,1.91-4.56,7.21-5.93,9.42c-1,1.52-2.24,1.69-4.01,0.58
		c-14.85-9.91-30.12-13.26-43.86-13.54c-19.83,0.39-34.79,12.09-35.77,28.14c-0.26,14.5,10.83,25.01,34.36,33.04
		C456.41,360.38,474.82,378.61,471.33,407.19" />
  </g>
</svg>